<svg width="255" height="71" viewBox="0 0 255 71" fill="none" xmlns="http://www.w3.org/2000/svg">
<path d="M91.536 23.8L95.952 30.776L75.184 42.904L95.952 54.808L91.376 62.008L66.448 46.52V39.352L91.536 23.8ZM123.287 17.528C126.466 17.528 129.164 17.9547 131.383 18.808C133.623 19.64 135.671 20.824 137.527 22.36L132.375 28.568C131.159 27.5653 129.815 26.776 128.343 26.2C126.871 25.6027 125.271 25.304 123.543 25.304C121.687 25.304 119.991 25.8373 118.455 26.904C116.919 27.9493 115.692 29.6133 114.775 31.896C113.858 34.1573 113.399 37.1013 113.399 40.728C113.399 46.0613 114.359 49.944 116.279 52.376C118.22 54.7867 120.706 55.992 123.735 55.992C125.954 55.992 127.799 55.576 129.271 54.744C130.743 53.912 132.098 53.0053 133.335 52.024L138.103 58.104C136.439 59.7467 134.391 61.1547 131.959 62.328C129.527 63.5013 126.594 64.088 123.159 64.088C119.148 64.088 115.586 63.2027 112.471 61.432C109.378 59.64 106.946 57.016 105.175 53.56C103.426 50.0827 102.551 45.8053 102.551 40.728C102.551 35.7787 103.458 31.576 105.271 28.12C107.106 24.664 109.591 22.04 112.727 20.248C115.863 18.4347 119.383 17.528 123.287 17.528ZM144.702 63V18.648H155.198V54.712H174.43L173.342 63H144.702ZM193.228 70.168L185.324 66.552L212.236 10.712L220.076 14.328L217.548 19.576L249.452 39.288V46.52L224.524 62.008L219.948 55.128L240.748 42.904L213.9 27.192L193.228 70.168Z" fill="#F2F5F6"/>
<path d="M30.998 7.75C29.8096 7.75 28.5955 7.85333 27.3813 8.11167C20.2513 9.48083 14.568 15.2417 13.2246 22.3717C11.9846 29.1142 14.4646 35.3142 18.9596 39.3183C20.0705 40.3 20.6646 41.6692 20.6646 43.1158V49.0833C20.6646 51.925 22.9896 54.25 25.8313 54.25H26.5546C27.4588 55.8 29.0863 56.8333 30.998 56.8333C32.9096 56.8333 34.563 55.8 35.4413 54.25H36.1646C39.0063 54.25 41.3313 51.925 41.3313 49.0833V43.1158C41.3313 41.695 41.8996 40.3 42.9846 39.3442C46.7305 36.0375 49.0813 31.2067 49.0813 25.8333C49.0813 15.8358 40.9955 7.75 30.998 7.75ZM36.1646 43.9167H25.8313V41.3333H36.1646V43.9167ZM25.8313 49.0833V46.5H36.1646V49.0833H25.8313ZM39.5488 35.495C39.3163 35.7017 39.1355 35.96 38.9288 36.1667H23.0413C22.8346 35.9342 22.6538 35.6758 22.4213 35.4692C19.0113 32.4208 17.4871 27.8742 18.3138 23.3275C19.2438 18.3158 23.3771 14.1567 28.363 13.175C29.2413 12.9942 30.1196 12.9167 30.998 12.9167C38.128 12.9167 43.9146 18.7033 43.9146 25.8333C43.9146 29.5275 42.3388 33.0408 39.5488 35.495Z" fill="#F2F5F6"/>
<path d="M32.2904 28.4141H29.707V36.1641H32.2904V28.4141Z" fill="#F2F5F6"/>
<path d="M26.8111 22.9272L24.9844 24.7539L30.4644 30.2339L32.2911 28.4073L26.8111 22.9272Z" fill="#F2F5F6"/>
<path d="M29.7085 28.435L31.5352 30.2617L37.0152 24.7817L35.1885 22.955L29.7085 28.435Z" fill="#F2F5F6"/>
</svg>
